HIERARCHY
ROOT SimulationBone
{
	OFFSET 0.000000 0.000000 0.000000
	CHANNELS 6 Xposition Yposition Zposition Zrotation Yrotation Xrotation 
	JOINT Hips
	{
		OFFSET 0.000000 0.000000 0.000000
		CHANNELS 6 Xposition Yposition Zposition Zrotation Yrotation Xrotation 
		JOINT LeftUpLeg
		{
			OFFSET 0.103458 1.857831 10.548505
			CHANNELS 3 Zrotation Yrotation Xrotation
			JOINT LeftLeg
			{
				OFFSET 43.500000 -0.000031 0.000002
				CHANNELS 3 Zrotation Yrotation Xrotation
				JOINT LeftFoot
				{
					OFFSET 42.372200 0.000023 0.000003
					CHANNELS 3 Zrotation Yrotation Xrotation
					JOINT LeftToe
					{
						OFFSET 17.299997 -0.000001 -0.000010
						CHANNELS 3 Zrotation Yrotation Xrotation
						End Site
						{
							OFFSET 0.000000 0.000000 0.000000
						}
					}
				}
			}
		}
		JOINT RightUpLeg
		{
			OFFSET 0.103457 1.857828 -10.548510
			CHANNELS 3 Zrotation Yrotation Xrotation
			JOINT RightLeg
			{
				OFFSET 43.500046 -0.000015 0.000002
				CHANNELS 3 Zrotation Yrotation Xrotation
				JOINT RightFoot
				{
					OFFSET 42.372261 -0.000008 0.000023
					CHANNELS 3 Zrotation Yrotation Xrotation
					JOINT RightToe
					{
						OFFSET 17.299990 -0.000007 -0.000002
						CHANNELS 3 Zrotation Yrotation Xrotation
						End Site
						{
							OFFSET 0.000000 0.000000 0.000000
						}
					}
				}
			}
		}
		JOINT Spine
		{
			OFFSET 6.901967 -2.603726 -0.000001
			CHANNELS 3 Zrotation Yrotation Xrotation
			JOINT Spine1
			{
				OFFSET 12.588100 -0.000009 -0.000003
				CHANNELS 3 Zrotation Yrotation Xrotation
				JOINT Spine2
				{
					OFFSET 12.343202 0.000008 0.000008
					CHANNELS 3 Zrotation Yrotation Xrotation
					JOINT Neck
					{
						OFFSET 25.832897 -0.000015 -0.000004
						CHANNELS 3 Zrotation Yrotation Xrotation
						JOINT Head
						{
							OFFSET 11.766609 0.000013 -0.000006
							CHANNELS 3 Zrotation Yrotation Xrotation
							End Site
							{
								OFFSET 0.000000 0.000000 0.000000
							}
						}
					}
					JOINT LeftShoulder
					{
						OFFSET 19.745911 -1.480373 6.000098
						CHANNELS 3 Zrotation Yrotation Xrotation
						JOINT LeftArm
						{
							OFFSET 11.284123 -0.000007 -0.000032
							CHANNELS 3 Zrotation Yrotation Xrotation
							JOINT LeftForeArm
							{
								OFFSET 33.000050 0.000005 0.000031
								CHANNELS 3 Zrotation Yrotation Xrotation
								JOINT LeftHand
								{
									OFFSET 25.200008 0.000017 0.000013
									CHANNELS 3 Zrotation Yrotation Xrotation
									End Site
									{
										OFFSET 0.000000 0.000000 0.000000
									}
								}
							}
						}
					}
					JOINT RightShoulder
					{
						OFFSET 19.746092 -1.480379 -6.000077
						CHANNELS 3 Zrotation Yrotation Xrotation
						JOINT RightArm
						{
							OFFSET 11.284136 -0.000017 -0.000017
							CHANNELS 3 Zrotation Yrotation Xrotation
							JOINT RightForeArm
							{
								OFFSET 33.000099 0.000019 0.000015
								CHANNELS 3 Zrotation Yrotation Xrotation
								JOINT RightHand
								{
									OFFSET 25.199780 0.000140 0.000408
									CHANNELS 3 Zrotation Yrotation Xrotation
									End Site
									{
										OFFSET 0.000000 0.000000 0.000000
									}
								}
							}
						}
					}
				}
			}
		}
	}
}
MOTION
Frames: 9
Frame Time: 0.016667
78.019561 0.000000 -263.085935 180.000000 -50.427876 180.000000 -5.724613 92.006363 -1.978802 85.720997 -3.148222 -177.191007 163.783415 -0.067094 -168.978416 -22.301145 -3.906375 1.702557 74.875975 -3.071201 -6.640464 21.454551 0.003091 -0.000000 167.113241 4.502104 173.614543 -23.267292 4.033724 1.670138 82.533888 -1.522225 -1.060372 21.454560 -0.003110 -0.000018 8.937111 0.369649 -0.931394 7.855160 0.801499 -1.835616 7.537190 0.790541 -1.840417 14.887355 6.264730 11.638270 -14.888045 -13.432172 17.106871 166.826700 -78.269891 11.871776 -34.891945 49.289328 14.484157 -80.876173 -9.452233 2.565471 -5.910038 0.614588 42.131112 -160.012930 77.638639 21.843937 22.249257 -31.792136 -45.921980 -75.339287 14.919729 -2.747474 17.333524 -5.919568 -52.375963 
78.112186 0.000000 -262.884692 180.000000 -53.241291 180.000000 -4.964139 91.883378 -2.227621 86.348070 -3.475758 -178.012103 164.634641 -0.121285 -170.057709 -22.304328 -4.297254 2.110463 76.944196 -3.953241 -9.273901 21.454549 0.003106 -0.000002 168.233355 5.867191 177.449615 -23.883693 4.536675 0.384961 83.400812 -0.702579 -1.404604 21.454558 -0.003110 -0.000017 8.788800 0.483063 -0.732893 7.558707 1.012798 -1.432781 7.240655 1.004267 -1.438859 13.163810 5.948454 11.520400 -15.286073 -13.221393 17.011294 167.062449 -77.286314 11.668313 -33.991034 50.231432 15.847483 -79.793406 -9.923072 2.550523 -4.405336 1.648650 45.238773 -161.772037 77.419529 20.056480 22.059273 -32.183910 -45.411565 -74.902379 14.862294 -2.743766 17.602830 -8.156097 -52.205597 
78.175129 0.000000 -262.641553 180.000000 -56.015589 180.000000 -4.305820 91.705833 -2.377965 86.958716 -3.597807 -178.810941 164.859333 -0.340808 -171.740626 -23.696949 -4.394563 2.443094 78.872244 -4.276076 -10.245746 21.454550 0.003104 -0.000001 169.318245 6.690201 179.817666 -24.524081 5.069716 -0.001369 84.302586 -0.442940 -1.459074 21.454557 -0.003104 -0.000017 8.675926 0.616642 -0.571912 7.333332 1.268130 -1.103756 7.015205 1.261579 -1.111379 11.050849 5.964020 11.330486 -15.061406 -13.820314 17.057872 169.432240 -76.596284 9.278008 -33.111151 51.458303 16.929955 -78.099326 -10.585461 2.524835 -3.674744 1.746696 46.511726 -164.433306 77.005856 17.348470 20.896009 -32.461446 -44.800880 -73.770803 14.964581 -2.683365 17.571165 -9.715714 -50.725451 
78.211763 0.000000 -262.356013 180.000000 -58.733091 180.000000 -3.740343 91.479121 -2.464916 87.558014 -3.557025 -179.576838 164.638591 -0.709940 -173.737166 -26.071429 -4.166117 2.437115 80.560039 -4.105843 -10.220724 21.454551 0.003095 0.000001 170.339684 7.072229 -178.851206 -25.190101 5.506936 0.253727 85.244602 -0.573285 -1.249244 21.454555 -0.003098 -0.000017 8.590167 0.754478 -0.428583 7.162700 1.533896 -0.809833 6.844501 1.529114 -0.819068 8.911705 6.208963 11.092192 -14.612436 -14.766861 17.160827 172.587926 -76.059897 6.075301 -32.150220 52.895810 17.725554 -75.904160 -11.396840 2.488337 -3.569135 1.072405 46.407948 -167.295470 76.445639 14.431592 18.847176 -32.781613 -44.296508 -71.688042 15.351043 -2.609528 16.996942 -10.659495 -48.000170 
78.225463 0.000000 -262.027567 180.000000 -61.377841 180.000000 -3.253009 91.208633 -2.520804 88.156902 -3.394725 179.697936 164.151357 -1.209894 -175.755534 -29.026995 -3.614913 1.812899 81.936567 -3.455761 -9.872078 21.454553 0.003087 0.000002 171.308699 7.094195 -178.119463 -25.889903 5.717465 0.895448 86.227210 -0.923553 -0.795703 21.454555 -0.003097 -0.000017 8.523204 0.880802 -0.283013 7.030433 1.777055 -0.512188 6.712171 1.774065 -0.522904 7.111914 6.585686 10.837429 -14.338095 -15.598042 17.243125 175.403069 -75.575124 3.212999 -31.011821 54.468906 18.225413 -73.317428 -12.315418 2.442649 -3.883888 -0.267087 45.411840 -169.785606 75.810382 11.889209 15.992352 -33.316538 -44.092207 -68.388006 16.147527 -2.540395 15.679060 -11.001311 -44.105027 
78.219604 0.000000 -261.655709 180.000000 -63.936031 180.000000 -2.826297 90.906700 -2.566805 88.771074 -3.161873 179.029119 163.548821 -1.800002 -177.536233 -32.205910 -2.805145 0.397948 82.885723 -2.345848 -9.723082 21.454552 0.003087 0.000001 172.266410 6.846046 -177.607644 -26.613042 5.626623 1.706325 87.236781 -1.352506 -0.133580 21.454554 -0.003103 -0.000018 8.468898 0.981527 -0.122283 6.924373 1.968527 -0.185797 6.606068 1.967502 -0.197684 5.916605 6.986696 10.577919 -14.510750 -15.952213 17.223637 177.110761 -75.098272 1.478226 -29.621863 56.086478 18.443166 -70.441894 -13.301333 2.391744 -4.369053 -2.158455 43.821640 -171.533021 75.189669 10.101412 12.361893 -34.213022 -44.309295 -63.630910 17.345597 -2.443521 13.559767 -10.682451 -39.111149 
78.197558 0.000000 -261.239933 180.000000 -66.396254 180.000000 -2.449137 90.613403 -2.589987 89.420542 -2.953482 178.473345 162.888182 -2.395997 -178.945301 -35.366715 -1.898679 -1.524845 83.104748 -0.973981 -9.681778 21.454551 0.003091 -0.000001 173.312048 6.515503 -177.180407 -27.243163 5.399936 2.607300 88.208463 -1.831932 0.626476 21.454555 -0.003108 -0.000018 8.429763 1.048938 0.038656 6.849089 2.093693 0.139174 6.530763 2.094626 0.126522 5.181550 7.242989 10.203638 -14.893579 -15.880523 16.946724 178.040328 -74.626691 0.537084 -27.988226 57.590937 18.480901 -67.354864 -14.318487 2.336786 -4.635353 -4.395902 41.146862 -172.452003 74.669878 9.159013 7.816813 -35.438483 -44.855497 -57.329800 18.391451 -2.262629 11.040093 -9.571599 -32.998866 
78.162700 0.000000 -260.779735 180.000000 -68.749605 180.000000 -2.117662 90.363485 -2.574722 90.118817 -2.836901 178.078862 162.190146 -2.938350 -179.890925 -38.322206 -1.043571 -3.579205 82.413622 0.441222 -9.536155 21.454549 0.003094 -0.000002 174.529431 6.262128 -176.749095 -27.659371 5.217844 3.540310 89.076709 -2.346638 1.371036 21.454556 -0.003106 -0.000018 8.407213 1.082150 0.183062 6.806815 2.151628 0.429338 6.488485 2.154310 0.416337 4.692804 7.223410 9.619412 -15.181075 -15.536669 16.297646 178.699094 -74.164762 -0.128247 -26.182486 58.854196 18.402868 -64.119735 -15.321320 2.278700 -4.312615 -6.730732 37.005123 -172.705215 74.293893 8.898243 2.391934 -36.939609 -45.326966 -49.703789 18.689370 -2.026619 8.714807 -7.522271 -26.132670 
78.118404 0.000000 -260.274609 180.000000 -70.989646 180.000000 -1.836502 90.142593 -2.531967 90.814454 -2.727930 177.831408 161.440810 -3.518603 179.680434 -41.026333 -0.396973 -5.520336 81.284926 1.810915 -9.120228 21.454548 0.003093 -0.000002 175.873737 6.039000 -176.185071 -27.846421 5.093996 4.410336 89.820333 -2.837472 2.049796 21.454558 -0.003103 -0.000017 8.389944 1.101460 0.314896 6.774889 2.182586 0.693650 6.456567 2.186865 0.680464 4.361819 7.026145 8.912907 -15.294445 -15.063798 15.415469 179.439069 -73.772910 -0.879110 -24.440977 59.940843 18.059127 -60.769620 -16.220050 2.210526 -3.437500 -8.910411 32.386133 -173.178599 73.953138 8.411455 -2.958174 -38.661960 -44.299185 -42.021269 18.013801 -1.737501 7.335183 -4.358093 -20.540809 
